<svg width="28" height="28" viewBox="0 0 28 28" fill="none" xmlns="http://www.w3.org/2000/svg">
<path fill-rule="evenodd" clip-rule="evenodd" d="M14.4397 1.11507L18.306 8.775L25.7476 9.51222C26.1093 9.54228 26.4205 9.78002 26.5446 10.1211C26.6688 10.4622 26.5831 10.8444 26.3253 11.0999L20.2011 17.1698L22.4717 25.4179C22.5666 25.7753 22.443 26.1551 22.156 26.3882C21.869 26.6213 21.472 26.6644 21.1417 26.4983L13.5973 22.7626L6.06331 26.4937C5.73298 26.6598 5.33594 26.6167 5.04895 26.3836C4.76197 26.1505 4.63842 25.7707 4.73331 25.4133L7.00391 17.1652L0.875037 11.0953C0.617218 10.8398 0.531586 10.4576 0.655715 10.1165C0.779843 9.7754 1.09105 9.53766 1.4528 9.5076L8.89433 8.77038L12.7549 1.11507C12.9168 0.798904 13.2421 0.600006 13.5973 0.600006C13.9525 0.600006 14.2778 0.798904 14.4397 1.11507Z" stroke="#B3B3B3" stroke-width="1.2" stroke-linecap="round" stroke-linejoin="round"/>
</svg>
